# xmcd CD database file
#
# Track frame offsets:
#	150
#	17338
#	29914
#	44421
#	59939
#	72639
#	87411
#	99191
#	117260
#	130956
#	143837
#	161214
#	172100
#	187445
#	202188
#
# Disc length: 2873 seconds
#
# Revision: 0
# Processed by: cddbd v1.5.2PL0 Copyright (c) Steve Scherf et al.
# Submitted via: CDex 1.51
#
DISCID=f30b370f
DTITLE=Johnny Cash - Unearthed (Volume 3) (Redemption Songs)
DYEAR=2003
DGENRE=Country
TTITLE0=A Singer of Songs
TTITLE1=The L and N Don't Stop Here Anymore
TTITLE2=Redemption Song
TTITLE3=Father and Son
TTITLE4=Chattanooga Sugar Babe
TTITLE5=He Stopped Loving Her Today
TTITLE6=Hard Times Come Again No More
TTITLE7=Wichita Lineman
TTITLE8=Cindy [Traditional]
TTITLE9=Big Iron
TTITLE10=Salty Dog
TTITLE11=Gentle on My Mind
TTITLE12=You Are My Sunshine
TTITLE13=You'll Never Walk Alone
TTITLE14=The Man Comes Around
EXTD=YEAR: 2003
EXTT0=
EXTT1=
EXTT2=
EXTT3=
EXTT4=
EXTT5=
EXTT6=
EXTT7=
EXTT8=
EXTT9=
EXTT10=
EXTT11=
EXTT12=
EXTT13=
EXTT14=
PLAYORDER=
